<?xml version="1.0" encoding="UTF-8"?>
<svg width="52.917mm" height="52.917mm" version="1.1" viewBox="0 0 52.917 52.917" xmlns="http://www.w3.org/2000/svg">
 <g transform="translate(-78.542 -122.04)">
  <g fill="#918a6f">
   <path transform="matrix(.26458 0 0 .26458 78.542 122.04)" d="m100 0a100 100 0 0 0-100 100 100 100 0 0 0 100 100 100 100 0 0 0 100-100 100 100 0 0 0-100-100zm0 1a99 99 0 0 1 99 99 99 99 0 0 1-99 99 99 99 0 0 1-99-99 99 99 0 0 1 99-99z"/>
   <path transform="matrix(.26458 0 0 .26458 78.542 122.04)" d="m100 22a78 78 0 0 0-78 78 78 78 0 0 0 78 78 78 78 0 0 0 78-78 78 78 0 0 0-78-78zm0 1a77 77 0 0 1 77 77 77 77 0 0 1-77 77 77 77 0 0 1-77-77 77 77 0 0 1 77-77z" stroke-width=".975"/>
   <circle cx="81.717" cy="148.48" r=".79375" stroke-width=".26458"/>
   <circle cx="128.28" cy="148.48" r=".79375" stroke-width=".26458"/>
   <g transform="translate(-.33513 .4946)" font-family="Halant" font-size="22.578px" font-weight="300" letter-spacing="0px" stroke-width=".26458" word-spacing="0px">
    <text x="98.215843" y="151.55939" style="font-variant-caps:normal;font-variant-east-asian:normal;font-variant-ligatures:normal;font-variant-numeric:normal;line-height:1.25" xml:space="preserve"><tspan x="98.215843" y="151.55939" fill="#918a6f" font-family="Halant" font-size="22.578px" font-weight="300" stroke-width=".26458" style="font-variant-caps:normal;font-variant-east-asian:normal;font-variant-ligatures:normal;font-variant-numeric:normal">E</tspan></text>
    <text x="101.72997" y="160.27846" style="font-variant-caps:normal;font-variant-east-asian:normal;font-variant-ligatures:normal;font-variant-numeric:normal;line-height:1.25" xml:space="preserve"><tspan x="101.72997" y="160.27846" fill="#918a6f" font-family="Halant" font-size="22.578px" font-weight="300" stroke-width=".26458" style="font-variant-caps:normal;font-variant-east-asian:normal;font-variant-ligatures:normal;font-variant-numeric:normal">E</tspan></text>
   </g>
   <g stroke-width=".26458" aria-label="ETHEREAL ELEGANCE">
    <path d="m86.648 136.89-2.6839-1.8573 1.141-1.6488 0.24306 0.1682-0.91278 1.319 0.92636 0.64107 0.7975-1.1524 0.19547 0.13527-0.7975 1.1524 1.0759 0.74457 0.92807-1.3411 0.24306 0.16821z"/>
    <path d="m86.619 132.05 2.2292 1.9599-0.26478 0.30116-2.2292-1.9599-0.6251 0.71099-0.22199-0.19517 1.5123-1.72 0.22199 0.19518z"/>
    <path d="m90.36 130.38-1.2968 1.1296 1.0373 1.1908-0.30237 0.2634-2.1439-2.461 0.30237-0.2634 0.95042 1.091 1.2968-1.1296-0.95042-1.091 0.30237-0.2634 2.1439 2.461-0.30237 0.26341z"/>
    <path d="m92.22 130.94-1.8057-2.7189 1.6703-1.1092 0.16353 0.24624-1.3362 0.88739 0.62323 0.93845 1.1675-0.77533 0.13151 0.19803-1.1675 0.77532 0.72386 1.09 1.3586-0.90226 0.16353 0.24624z"/>
    <path d="m94.406 127.54q0.20892-0.10445 0.32634-0.22092 0.11926-0.11739 0.16549-0.23756 0.0453-0.12202 0.02867-0.24312-0.01571-0.12387-0.07486-0.2422-0.061-0.12203-0.14327-0.18489-0.08134-0.0656-0.17656-0.0851-0.09521-0.0194-0.19967-2e-3 -0.10354 0.0148-0.20985 0.0518-0.10631 0.037-0.21262 0.0878-0.10446 0.0499-0.2006 0.098l-0.38827 0.1941 0.53054 1.0613zm0.40397-0.0517q0.21447-0.0795 0.38734-0.0943 0.17287-0.0148 0.30968 0.0324 0.13866 0.0462 0.24496 0.15255 0.1063 0.10631 0.18764 0.26902l0.36694 0.73401-0.35869 0.17931-0.3808-0.76175q-0.07394-0.14791-0.15713-0.23111-0.08412-0.0851-0.17748-0.11926-0.09429-0.0361-0.19875-0.0278-0.10538 6e-3 -0.22094 0.0434-0.11648 0.0351-0.24313 0.0961-0.12757 0.0592-0.26624 0.12848l-0.3328 0.16637 0.6775 1.3552-0.35869 0.17931-1.4594-2.9194 0.86159-0.43071q0.26809-0.13402 0.5029-0.20057 0.23573-0.0693 0.42893-0.0573 0.19228 0.0102 0.34018 0.10726 0.14975 0.0961 0.2468 0.29028 0.09243 0.18489 0.10351 0.35036t-0.04717 0.30783q-0.05732 0.13958-0.17566 0.2542-0.11648 0.1137-0.28104 0.19596z"/>
    <path d="m96.858 128.37-1.0932-3.0754 1.8892-0.67154 0.099 0.27851-1.5114 0.53723 0.37731 1.0615 1.3205-0.46939 0.07962 0.22398-1.3205 0.46939 0.43823 1.2329 1.5367-0.54623 0.099 0.27851z"/>
    <path d="m99.956 124.05 1.7414 2.9594-0.40179 0.0882-0.41802-0.71879-1.3891 0.3048-0.07866 0.82778-0.40178 0.0882 0.34227-3.4166zm-0.4582 2.4157 1.2801-0.28088-1.0702-1.82z"/>
    <path d="m102.15 126.97-0.29654-3.2504 0.39935-0.0364 0.26969 2.956 1.5356-0.14011 0.0269 0.29437z"/>
    <path d="m105.64 126.79 0.23067-3.2557 2 0.1417-0.0209 0.29485-1.6-0.11336-0.0796 1.1237 1.398 0.099-0.0168 0.23712-1.398-0.0991-0.0925 1.3052 1.6268 0.11526-0.0209 0.29485z"/>
    <path d="m108.09 127 0.5982-3.2086 0.39421 0.0735-0.54402 2.918 1.5159 0.28262-0.0542 0.29059z"/>
    <path d="m110.49 127.48 0.95883-3.1199 1.9166 0.58902-0.0868 0.28255-1.5333-0.47122-0.33095 1.0768 1.3396 0.41171-0.0698 0.22722-1.3396-0.41171-0.38438 1.2507 1.559 0.47911-0.0868 0.28254z"/>
    <path d="m115.33 127.81-0.77385-0.35058 0.10833-0.23913 1.1052 0.50072-0.69178 1.527-0.16569-0.0751 0.0819-0.44625q-0.0661 0.0858-0.16746 0.14425-0.10138 0.0585-0.23667 0.0766-0.1353 0.0181-0.30487-0.0133-0.16854-0.0287-0.36812-0.11911-0.29937-0.13563-0.47243-0.35473-0.17305-0.2191-0.23173-0.4953-0.0568-0.27536-4e-3 -0.59652 0.0543-0.32031 0.20703-0.65734 0.17913-0.3954 0.39796-0.648 0.21883-0.25261 0.46964-0.37045t0.52882-0.10535q0.27801 0.0125 0.5755 0.14726 0.1092 0.0495 0.21535 0.11571 0.107 0.0644 0.20255 0.14396 0.0974 0.0805 0.17882 0.17633 0.0841 0.0948 0.14755 0.20527l-0.23942 0.19788q-0.0323-0.0691-0.0915-0.14358-0.0593-0.0745-0.14355-0.149-0.0843-0.0745-0.19143-0.14346-0.10444-0.07-0.2306-0.12716-0.21276-0.0964-0.4088-0.0944-0.19519 7e-5 -0.37623 0.10414-0.17915 0.10492-0.34311 0.31656-0.16123 0.21062-0.30795 0.53447-0.13989 0.30879-0.20303 0.56838-0.0623 0.25771-0.0348 0.46758t0.15477 0.36967q0.1273 0.15979 0.3683 0.26897 0.16193 0.0734 0.31217 0.10739 0.15213 0.0349 0.2828 0.0169 0.13153-0.0198 0.23408-0.0959 0.10528-0.0771 0.17352-0.22774z"/>
    <path d="m118.6 127.57-0.84154 3.329-0.34775-0.2197 0.20789-0.8051-1.2023-0.75957-0.63778 0.5335-0.34776-0.2197 2.645-2.1897zm-2.0239 1.3962 1.1079 0.69995 0.51805-2.0468z"/>
    <path d="m119.75 132.56 0.55746-3.3432-1.8874 2.2046-0.30462-0.2608 2.1227-2.4793 0.41139 0.35221-0.56443 3.31 1.874-2.1889 0.30462 0.2608-2.1227 2.4794z"/>
    <path d="m121.98 132.54q-0.23976 0.21253-0.39145 0.42157-0.15032 0.21059-0.20365 0.41531-0.0533 0.20472-9e-4 0.40408 0.0524 0.19937 0.22108 0.38963 0.10695 0.12066 0.22785 0.20408 0.12228 0.085 0.22589 0.13953 0.12213 0.063 0.24001 0.0994l-0.13822 0.27721q-0.13487-0.0462-0.27106-0.11882-0.11785-0.0613-0.25538-0.16034-0.13771-0.0962-0.26249-0.23691-0.23584-0.26606-0.32198-0.53774-0.0861-0.27169-0.0391-0.54267 0.05-0.27081 0.22424-0.53853 0.17718-0.26755 0.46798-0.52532 0.14076-0.12478 0.31-0.23612 0.17079-0.11272 0.36007-0.19211 0.18928-0.0794 0.38914-0.11568 0.20123-0.0347 0.40152-5e-3 0.2032 0.0298 0.39755 0.13376 0.19572 0.1055 0.37534 0.30813 0.11929 0.13458 0.20064 0.26687 0.0829 0.13092 0.13375 0.23501 0.0585 0.12213 0.0958 0.23273l-0.28599 0.12921q-0.0308-0.097-0.0814-0.20404-0.0442-0.0935-0.11489-0.20753-0.0678-0.1139-0.1734-0.23301-0.17551-0.19799-0.38209-0.269-0.20658-0.071-0.42979-0.0361-0.22183 0.0364-0.45667 0.16726-0.23192 0.131-0.4624 0.3353z"/>
    <path d="m122.3 135.36 2.6808-1.8618 1.1437 1.6469-0.24278 0.16861-0.91497-1.3175-0.9253 0.6426 0.79942 1.1511-0.19525 0.13559-0.79941-1.1511-1.0747 0.74636 0.93029 1.3396-0.24279 0.1686z"/>
   </g>
   <g stroke-width=".26458" aria-label="DESIGN SERVICES">
    <path d="m119.87 166.5q0.43992 0.4912 0.83392 0.59341 0.39246 0.10359 0.73891-0.2067l0.60822-0.54472-1.7817-1.9894-0.5728 0.513q-0.35415 0.31718-0.30952 0.72952 0.0431 0.41371 0.483 0.9049zm-0.29984 0.28797q-0.14894-0.1663-0.26821-0.33974-0.1208-0.17207-0.19734-0.35048-0.0752-0.17688-0.0988-0.35823-0.0237-0.18136 0.0187-0.3664 0.0438-0.18349 0.16084-0.36881 0.11553-0.18394 0.32186-0.36873l0.85766-0.76813 2.1775 2.4313-0.82995 0.74331q-0.26484 0.23719-0.52691 0.34426-0.26069 0.1086-0.52412 0.0809-0.26497-0.0263-0.53666-0.19643-0.27185-0.16721-0.55455-0.48287z"/>
    <path d="m118.04 165.87 1.8505 2.6886-1.6516 1.1368-0.16759-0.24349 1.3213-0.90943-0.63871-0.92798-1.1544 0.79458-0.13478-0.19581 1.1544-0.79459-0.74185-1.0778-1.3434 0.92467-0.16759-0.24349z"/>
    <path d="m114.53 168.99q-0.0829-0.15726-0.10887-0.33516-0.0278-0.17693 0.0321-0.36036 0.0581-0.18247 0.21979-0.35883 0.16078-0.17819 0.45336-0.33239 0.16093-0.0848 0.32822-0.13091 0.16633-0.0479 0.30361-0.0712 0.16124-0.0266 0.31277-0.0317l0.10798 0.29357q-0.13776 1.7e-4 -0.28438 0.019-0.12447 0.0165-0.27617 0.0568-0.15171 0.0402-0.29617 0.11636-0.14446 0.0761-0.26456 0.16746-0.11914 0.0932-0.18608 0.20555-0.067 0.11238-0.0696 0.24928-3e-3 0.13691 0.0851 0.30331 0.0549 0.10424 0.13218 0.17101 0.0754 0.0677 0.17046 0.10176 0.096 0.0359 0.20797 0.0399 0.1111 7e-3 0.2374-0.0106l0.61571-0.0908q0.14748-0.0216 0.29814-0.0239 0.1498 4.9e-4 0.28653 0.0382 0.13769 0.0396 0.25413 0.1231 0.11461 0.0845 0.19267 0.23258 0.10697 0.20299 0.11265 0.38224 6e-3 0.17926-0.0714 0.33439-0.078 0.15793-0.22772 0.29058-0.15156 0.13361-0.36003 0.24347-0.13349 0.0703-0.26661 0.11481-0.13216 0.0463-0.25922 0.0712-0.1289 0.0259-0.24615 0.0339-0.11812 0.0108-0.21988 8e-3l-0.0868-0.29773q0.0889 5e-3 0.19688-3e-3 0.10715-5e-3 0.22228-0.026 0.11513-0.0209 0.23362-0.0577 0.11666-0.0358 0.22455-0.0926 0.17007-0.0896 0.27727-0.17883 0.10537-0.0882 0.15326-0.18358 0.0461-0.0944 0.0373-0.19959-0.0105-0.10426-0.0742-0.22495-0.1513-0.2871-0.5688-0.22363l-0.67742 0.10232q-0.16865 0.0258-0.33617 0.0183-0.16838-5e-3 -0.31927-0.056-0.15271-0.0504-0.27975-0.15399-0.12704-0.10361-0.21667-0.27368z"/>
    <path d="m113.46 168.74 1.0522 2.5823 0.39051-0.15911 0.092 0.22588-1.1352 0.46251-0.092-0.22588 0.39434-0.16067-1.0522-2.5823-0.39434 0.16067-0.0874-0.2144 1.1352-0.46251 0.0874 0.2144z"/>
    <path d="m110.53 170.96 0.81662-0.23427 0.0724 0.25234-1.1663 0.33458-0.46226-1.6114 0.17485-0.0502 0.22671 0.393q-5e-3 -0.10817 0.0341-0.21838 0.0393-0.11021 0.13067-0.21167 0.0913-0.10146 0.24086-0.18737 0.14698-0.0873 0.35759-0.14774 0.31592-0.0906 0.58969-0.0358t0.49741 0.22719q0.22165 0.17296 0.38975 0.4516 0.16612 0.27921 0.26815 0.63487 0.11969 0.41725 0.11664 0.75144-3e-3 0.33419-0.11777 0.58645-0.11472 0.25225-0.33459 0.42285-0.21986 0.17059-0.5338 0.26065-0.11524 0.0331-0.23901 0.0514-0.12321 0.0203-0.24757 0.0216-0.12635 2e-3 -0.25045-0.0185-0.12551-0.0178-0.24538-0.0608l0.0542-0.30586q0.0693 0.0317 0.16275 0.0501 0.0934 0.0184 0.20587 0.0205 0.11244 2e-3 0.23877-0.0147 0.12492-0.0143 0.25804-0.0525 0.22452-0.0644 0.3726-0.19291 0.14864-0.12651 0.21913-0.32306 0.0685-0.19599 0.0563-0.46344-0.0136-0.26489-0.11166-0.60664-0.0935-0.32586-0.21356-0.56452-0.1195-0.23667-0.27638-0.37875t-0.35738-0.18133q-0.2005-0.0393-0.45483 0.0337-0.17087 0.049-0.30737 0.12043-0.13848 0.072-0.22639 0.17032-0.0874 0.10032-0.11617 0.22471-0.0303 0.12695 0.0153 0.28591z"/>
    <path d="m107.09 170.11 2.1217 2.6431-0.38649-2.8763 0.39744-0.0534 0.43466 3.2348-0.53674 0.0721-2.0923-2.6262 0.38374 2.8558-0.39744 0.0534-0.43466-3.2348z"/>
    <path d="m102.74 170.97q9e-3 -0.17754 0.0774-0.3438 0.0664-0.16636 0.21145-0.29356 0.14303-0.12731 0.37212-0.19646 0.22919-0.0712 0.5595-0.0545 0.18167 9e-3 0.34907 0.0549 0.16751 0.0436 0.29745 0.0937 0.15222 0.0594 0.28514 0.13237l-0.0569 0.30758q-0.11857-0.0702-0.25428-0.12874-0.11548-0.0493-0.26648-0.0921-0.15099-0.0428-0.31408-0.051-0.16309-8e-3 -0.31298 9e-3 -0.14999 0.0193-0.26491 0.0818t-0.18703 0.17889q-0.0721 0.1164-0.0816 0.30426-6e-3 0.11768 0.0264 0.21452 0.0303 0.0967 0.0947 0.17449 0.0643 0.0798 0.15848 0.14047 0.0921 0.0626 0.20959 0.112l0.57587 0.23605q0.13788 0.0566 0.26863 0.13154 0.12858 0.0769 0.2269 0.17911 0.0982 0.1043 0.15575 0.23553 0.0555 0.13112 0.047 0.29834-0.0116 0.22915-0.0982 0.38621-0.0866 0.15707-0.23207 0.25113-0.14766 0.096-0.34411 0.13371-0.19852 0.0376-0.43386 0.0257-0.15071-8e-3 -0.28788-0.0373-0.13727-0.0276-0.25926-0.0711-0.12405-0.0435-0.229-0.0964-0.10712-0.051-0.19339-0.10498l0.0773-0.30034q0.0741 0.0493 0.17099 0.0976 0.0947 0.0503 0.20444 0.091 0.10971 0.0407 0.23036 0.0696 0.11859 0.0288 0.24039 0.0349 0.19199 0.01 0.32971-0.0123 0.13564-0.0221 0.22548-0.0797 0.0878-0.0577 0.13396-0.1526 0.0441-0.095 0.051-0.2313 0.0164-0.32411-0.37508-0.48255l-0.6348-0.25766q-0.15821-0.0639-0.29844-0.15581-0.1424-0.09-0.24598-0.21112-0.10564-0.12124-0.16202-0.27517-0.0564-0.15394-0.0467-0.34593z"/>
    <path d="m102.28 170.05-0.54247 3.2185-1.9772-0.33324 0.04913-0.29148 1.5817 0.2666 0.18724-1.1109-1.382-0.23293 0.0395-0.2344 1.382 0.23293 0.21747-1.2902-1.6082-0.27106 0.0491-0.29148z"/>
    <path d="m98.364 171.03q-0.22386-0.0667-0.38918-0.062-0.16729 4e-3 -0.2832 0.0602-0.1165 0.0581-0.18717 0.15779-0.07325 0.10112-0.111 0.22791-0.03893 0.13075-0.02189 0.23288 0.01447 0.10352 0.07066 0.1828 0.05619 0.0793 0.14442 0.1379 0.08565 0.06 0.1885 0.10573 0.10285 0.0457 0.21518 0.0813 0.11035 0.035 0.21337 0.0657l0.41603 0.12388 0.3386-1.1372zm-0.33014-0.23849q-0.21084-0.0887-0.34708-0.19609-0.13624-0.10743-0.20382-0.23539-0.06956-0.12855-0.07442-0.27881-0.0049-0.15026 0.04705-0.3246l0.23419-0.78649 0.38433 0.11444-0.24304 0.81621q-0.04719 0.15848-0.04339 0.27608 0.0032 0.11958 0.04794 0.20838 0.04414 0.0908 0.12604 0.15616 0.08131 0.0673 0.19091 0.11939 0.109 0.054 0.24313 0.0961 0.13354 0.0441 0.28212 0.0883l0.3566 0.10619 0.43239-1.4522 0.38433 0.11444-0.93144 3.1282-0.92319-0.27489q-0.28726-0.0855-0.50409-0.19755-0.2194-0.11062-0.35214-0.25151-0.13333-0.13891-0.17487-0.31088-0.04352-0.17256 0.01842-0.38057 0.05899-0.19811 0.16406-0.32642 0.10507-0.12832 0.24491-0.19236 0.13728-0.0626 0.302-0.0654 0.16274-3e-3 0.33906 0.0492z"/>
    <path d="m95.986 168.65-1.9994 2.2737-0.34343-0.15357 2.2645-2.5627 0.46043 0.20588-0.39639 3.3981-0.34721-0.15525z"/>
    <path d="m94.212 167.6-1.3934 2.4154 0.36526 0.21072-0.12188 0.21127-1.0618-0.61252 0.12188-0.21127 0.36884 0.21278 1.3934-2.4154-0.36884-0.21278 0.11569-0.20054 1.0618 0.61252-0.11569 0.20054z"/>
    <path d="m92.02 167.85q0.18656-0.26047 0.28803-0.49799 0.09979-0.23872 0.10631-0.45017 0.0065-0.21144-0.08888-0.39419-0.0954-0.18274-0.3021-0.33079-0.13108-0.0939-0.26749-0.14836-0.1381-0.0557-0.25123-0.0859-0.13308-0.0343-0.25609-0.0436l0.0732-0.30099q0.14175 0.0151 0.29068 0.0556 0.12851 0.0336 0.28462 0.0996 0.15563 0.0632 0.30855 0.17269 0.28904 0.20702 0.43338 0.45278t0.15864 0.52043q0.01142 0.27515-0.09902 0.57489-0.11332 0.30022-0.3396 0.61615-0.10953 0.15292-0.24981 0.29908-0.14148 0.14784-0.3084 0.26729-0.16692 0.11944-0.35372 0.19922-0.18849 0.0786-0.39035 0.0942-0.20475 0.0161-0.41733-0.0421-0.21426-0.0594-0.43441-0.21706-0.1462-0.10471-0.25491-0.21563-0.10991-0.10923-0.1826-0.19943-0.0842-0.10608-0.14511-0.20564l0.25015-0.18951q0.05155 0.0878 0.12472 0.18086 0.06381 0.0813 0.15812 0.17682 0.09143 0.096 0.22082 0.18867 0.2151 0.15407 0.43229 0.17741 0.21719 0.0234 0.42707-0.0602 0.2082-0.0848 0.40811-0.26451 0.19703-0.17925 0.37637-0.42964z"/>
    <path d="m91.084 165.17-2.1966 2.4141-1.483-1.3494 0.19894-0.21863 1.1864 1.0795 0.75818-0.83323-1.0366-0.9432 0.15998-0.17582 1.0366 0.9432 0.8806-0.96777-1.2063-1.0976 0.19894-0.21863z"/>
    <path d="m87.246 162.47q0.13399-0.11682 0.30115-0.18302 0.1658-0.0678 0.35808-0.0517 0.19093 0.0145 0.39975 0.13139 0.21038 0.11549 0.42772 0.36478 0.11954 0.13711 0.20288 0.28932 0.0849 0.15085 0.13912 0.27909 0.06293 0.15082 0.10272 0.29712l-0.26088 0.17259q-0.03184-0.13403-0.0839-0.27238-0.04471-0.11734-0.11874-0.25572-0.07403-0.13839-0.18134-0.26148-0.10731-0.12309-0.22381-0.21897-0.11806-0.0945-0.24282-0.13382-0.12477-0.0393-0.2586-0.0104-0.13384 0.0289-0.27562 0.15254-0.08881 0.0774-0.13603 0.16796-0.04858 0.089-0.05984 0.18929-0.01282 0.10168 9e-3 0.21158 0.01886 0.10971 0.06493 0.2286l0.22997 0.57833q0.05498 0.13854 0.09185 0.28464 0.03396 0.1459 0.02865 0.28765-0.0069 0.14311-0.06136 0.27562-0.05585 0.13097-0.18205 0.24099-0.17294 0.15078-0.34609 0.19753-0.17315 0.0467-0.34186 7e-3 -0.17163-0.0396-0.33515-0.1548-0.16488-0.11677-0.31974-0.29439-0.09916-0.11374-0.17303-0.23307-0.07543-0.11798-0.12889-0.23591-0.05482-0.11949-0.08962-0.23175-0.03772-0.11246-0.05873-0.21206l0.26978-0.15294q0.01598 0.0875 0.04847 0.19084 0.02957 0.10312 0.07643 0.21034 0.04687 0.10723 0.10987 0.2141 0.06165 0.10531 0.14179 0.19723 0.12633 0.1449 0.23779 0.22872 0.11011 0.0822 0.2139 0.10694 0.10244 0.0231 0.20283-0.01 0.09904-0.0342 0.20187-0.1239 0.24462-0.21326 0.08684-0.60498l-0.25534-0.63573q-0.06389-0.15821-0.09509-0.32296-0.03412-0.16496-0.01887-0.32361 0.0139-0.1602 0.08553-0.30766t0.21653-0.27379z"/>
   </g>
  </g>
 </g>
</svg>
